# xmcd CD database file
#
# Track frame offsets:
#	150
#	35661
#	64572
#	99857
#	132890
#	160507
#	195081
#	226564
#	257641
#	290366
#
# Disc length: 4295 seconds
#
# Revision: 0
# Processed by: cddbd v1.5.2PL0 Copyright (c) Steve Scherf et al.
# Submitted via: CDex 1.70beta2
#
DISCID=6f10c50a
DTITLE=Chris Chabris - The Invisible Gorilla
DYEAR=2010
DGENRE=Audiobook
TTITLE0=Invisible Gorilla D6T01
TTITLE1=Invisible Gorilla D6T02
TTITLE2=Invisible Gorilla D6T03
TTITLE3=Invisible Gorilla D6T04
TTITLE4=Invisible Gorilla D6T05
TTITLE5=Invisible Gorilla D6T06
TTITLE6=Invisible Gorilla D6T07
TTITLE7=Invisible Gorilla D6T08
TTITLE8=Invisible Gorilla D6T09
TTITLE9=Invisible Gorilla D6T10
EXTD=YEAR: 2010
EXTT0=
EXTT1=
EXTT2=
EXTT3=
EXTT4=
EXTT5=
EXTT6=
EXTT7=
EXTT8=
EXTT9=
PLAYORDER=
